<svg xmlns="http://www.w3.org/2000/svg" width="2616" height="2616" viewBox="0 0 2616 2616">
  <defs>
    <style>
      .cls-1 {
        fill: #fff;
        fill-rule: evenodd;
      }
    </style>
  </defs>
  <path id="색상_칠_2" data-name="색상 칠 2" class="cls-1" d="M702,261c56.722-.841,108.774,2.562,153,16l61,21q-0.5,1-1,2c-70.283,10.18-146.92,48.012-199,74l-53,31c-1.772.913-8.581,2.976-6,5-15.819,9.863-82.034,52.108-83,60l-17,13c-12.706,14.087-31.786,28.253-45,45-1.5,1.907-3.994,6.638-6,5-1.891,1.8-4.508,9.221-7,7l-52,64s-12.286,17.915-13,17c-2.442,3.882-16.915,28.394-18,27l-25,43-4,7c-8.429,16.392-12.144,30.73-22,47-24.387,40.26-58.407,138.584-63,199l-4-1-26-52c-12.189-28.617-19.575-60.7-27-94-16.127-72.331-2.777-159.729,19-215,54.648-138.7,150.181-232.816,287-289,30.96-12.713,66.151-20.027,102-27Zm225,70c51.343-.978,93.12,9.526,136,19l138,23c70.12,14.936,142.1,19.645,210,35,33.66,7.611,68.21,6.078,98,17,44.19,16.2,107.96,98.122,122,144,13.74,44.908-13.05,93.319-24,127q-9.495,31.5-19,63c-5.19,13.781-22.19,47.037-17,61q22.995,11,46,22c120.9,54.245,161.09,132.971,186,283,5.95,35.81,6.89,85.69,0,122-6.54,34.51-11.21,67.75-21,99-57.53,183.56-191.42,313.28-360,386q-31.5,10.005-63,20c-171.3,45.54-269.53-128.43-311-239-15.59-41.56-23.07-89.75-32-140-1.97-11.1-8.11-46.07-2-53,20.2-8.16,49.96.72,74-3q84.99-7.995,170-16c149.44-27.48,284.58-57.75,391-127,38.38-24.97,79.95-52.04,101-94,8-15.94,10.78-52.25-6-63-3.15-.87-3.18-0.3-6,1-22.74,49.14-70.37,76-114,105-83.36,55.41-188.85,74.81-296,106l-99,15c-42.24,9.07-86.35,6.46-133,14q-16.005,1.005-32,2c-15.29-2.45-32.72,4.28-43-2-0.42-8.22-4.04-24.79,2-29q39.495-2.505,79-5c50.14-7.94,103.79-8.5,151-19,17.63-3.92,78.69-7.38,86-17q84.99-262.47,170-525c16.28-46.164,57.97-140.411,27-183-20.48-28.172-62.93-27.563-104-36l-263-41L997,375c-26.973-4.962-60.594-12.548-89-4-45.463,13.681-75.289,51.229-93,93l-17,49c-25.936,55-43.028,116.032-65,174L650,903c-15.885,45.613-32.314,88.139-49,132-5.381,14.14-9.731,46.92-22,54-9.274,1.88-16.962-5.73-26-8-0.667-1.67-1.333-3.33-2-5,24.623-66.71,45.66-136.93,74-201,6.967-15.751,8.312-33.295,15-48-2.978-2.033-1.2-.714-2-3-51.287,15.739-160.979,64.5-187,103-9,13.322-24.792,34.282-20,60,14.966,80.32,164.178,142.52,241,167,64.111,20.43,134.956,33.32,205,48,35.241,7.39,75.794,1.87,97,24-2.375,188.4,31.43,345.08,114,454,15.07,19.88,36.92,42.16,57,57q14.505,9,29,18v4c-81.36,52.19-269.96,13.81-349-13-207.616-70.42-356.351-205-428-411-27.692-79.62-36.072-203.42-20-301,6.133-37.238-.166-79.566,17-105,36.235-53.688,116.855-85.667,181-113,24.413-10.4,52.488-28.706,81-32L757,517c21.222-52.77,32.1-112.274,73-145,18.084-14.47,39.056-27.623,64-35ZM798,370c4.274,0.645,4.566.99,7,3-15.947,22.076-41.407,27.228-62,40-19.58,12.143-44.948,29.315-66,43l-36,24c-1.468.847-5.063,2.267-3,4-9.937,6.9-45.959,32.2-47,38l-16,13c-13.182,13.082-27.94,29.311-41,44l-2-1-52,64s-12.287,17.914-13,17c-38.241,60.794-69.155,117.308-100,195L333,971c-5.159,1.674-7.458-1.37-11-4-2.069-18.981,5.184-39.131,10-55,17.257-56.863,35.388-107.523,56-154,64.086-144.506,161.685-226.787,276-317l59-35c3.5-1.8,24.053-12.29,23-13Zm85,119c18.916-.32,32.558,4.946,47,8,35.555,7.519,72.17,9.475,105,16,86.69,17.229,172.38,23.686,257,39,43.09,7.8,127.48,8.395,150,35-0.14,17.219-7.67,28.781-12,42q-15,44.5-30,89c-5.02,14.374-7.11,35.77-20,42-21.34,6.09-105.44-14.089-129-19L951,691c-28.126-5.623-127.19-12.655-136-31-5.725-19.6,36.743-115.707,45-135,6.29-14.7,3.786-27.635,18-34Zm700,47c-6.68,48.1-29.74,93.819-44,138L1439,997c-11.73,38.9-25.15,78.05-37,119-5.93,20.47-16.61,41.67-20,65h4c13.73-5.32,32.67-5.54,44-13q73.5-232.47,147-465C1592.91,658.676,1629.79,569.8,1583,536ZM831,794c109.85-.458,69.338,157.28-28,133-44.118-11-60.759-63.488-31-103C786.121,805.252,803.257,798.01,831,794Zm208,36c97.41,4.077,67.58,151.085-26,131-40.156-8.619-67.69-57.939-39-98C992.005,837.859,997.446,834.164,1039,830Zm520,18c-21.39,62.2-38.3,122.335-59,186-13,39.98-32.82,83.66-40,127h1c85.25-31.35,170.77-59.91,227-120,70.8-75.664-13.8-142.024-75-169C1595.97,864.494,1579.88,851.8,1559,848Zm-318,17c112.98-2.844,78.46,152.81-16,133-35.81-7.51-70.04-52.647-44-95C1195.26,879.814,1207.46,868.127,1241,865Zm528,232c-91.19,148.96-305.89,195.33-504,237q-74.49,7.005-149,14-32.49,1.995-65,4c-2.1,33.06,6.55,66.18,14,93,29.08,104.78,63.85,186.5,142,241,30.08,20.97,86.53,51.72,139,35,171.26-54.57,289.38-158.67,370-304,30.37-54.74,58.51-142.8,59-224C1775.13,1171.6,1779.91,1107.78,1769,1097Z" transform="translate(285.158 285.107)"/>
</svg>
